# xmcd
#
# Track frame offsets:
#	150
#	7090
#	12817
#	24863
#	34917
#	45653
#	56189
#	71408
#	83251
#	95242
#	101340
#	114202
#	127020
#	144566
#	161796
#	192680
#	204889
#	225749
#	239693
#	250710
#	264978
#	276712
#	284404
#	299701
#	315830
#	327646
#
# Disc length: 4558 seconds
# Revision: 6
# Processed by: cddbd v1.5.2PL0 Copyright (c) Steve Scherf et al.
# Submitted via: dBpowerAMP V12.0
#
DISCID=8011cc1a
DTITLE=Various Artist - At Folsom Prison
DYEAR=1968
DGENRE=Country
TTITLE0=Carl Perkins - The Old Spinning Wheel
TTITLE1=Johnny Cash - Opening Announcements From Hugh Cherry
TTITLE2=Carl Perkins - Matchbox
TTITLE3=Carl Perkins - Blue Suede Shoes
TTITLE4=The Statler Brothers - You Can't Have Your Kate And Edith, Too
TTITLE5=The Statler Brothers - Flowers On The Wall
TTITLE6=The Statler Brothers - How Great Thou Art
TTITLE7=Johnny Cash - Announcements And Johnny Cash Intro From Hugh Cherry
TTITLE8=Johnny Cash - Folsom Prison Blues
TTITLE9=Johnny Cash - Busted
TTITLE10=Johnny Cash - Dark As A Dungeon
TTITLE11=Johnny Cash - Cocaine Blues
TTITLE12=Johnny Cash - 25 Minutes To Go
TTITLE13=Johnny Cash - Orange Blossom Special
TTITLE14=Johnny Cash - The Legend Of John Henry's Hammer
TTITLE15=Johnny Cash and June Carter Cash - Give My Love To Rose
TTITLE16=Johnny Cash - Dirty Old Egg-Sucking Dog
TTITLE17=Johnny Cash - Flushed From The Bathroom Of Your Heart
TTITLE18=Johnny Cash - Joe Bean
TTITLE19=Johnny Cash and June Carter Cash - Jackson
TTITLE20=Johnny Cash and June Carter Cash - Long-Legged Guitar Pickin' Man
TTITLE21=Johnny Cash - I Got Stripes
TTITLE22=Johnny Cash - Green, Green Grass Of Home
TTITLE23=Johnny Cash - Greystone Chapel
TTITLE24=Johnny Cash - Greystone Chapel
TTITLE25=Johnny Cash - Hugh Cherry Introduces Johnny's Father, Ray Cash And Floyd Gressett
EXTD=
EXTT0=
EXTT1=
EXTT2=
EXTT3=
EXTT4=
EXTT5=
EXTT6=
EXTT7=
EXTT8=
EXTT9=
EXTT10=
EXTT11=
EXTT12=
EXTT13=
EXTT14=
EXTT15=
EXTT16=
EXTT17=
EXTT18=
EXTT19=
EXTT20=
EXTT21=
EXTT22=
EXTT23=
EXTT24=
EXTT25=
PLAYORDER=
